<svg width="67" height="67" viewBox="0 0 67 67" fill="none" xmlns="http://www.w3.org/2000/svg">
<path d="M25.1708 5.97217H22.9839V8.1409H25.1708V5.97217Z" fill="white"/>
<path d="M27.3585 5.97217H25.1716V8.1409H27.3585V5.97217Z" fill="white"/>
<path d="M29.5444 5.97217H27.3574V8.1409H29.5444V5.97217Z" fill="white"/>
<path d="M31.732 5.97217H29.5452V8.1409H31.732V5.97217Z" fill="white"/>
<path d="M33.918 5.97217H31.7312V8.1409H33.918V5.97217Z" fill="white"/>
<path d="M36.1055 5.97217H33.9187V8.1409H36.1055V5.97217Z" fill="white"/>
<path d="M38.2932 5.97217H36.1062V8.1409H38.2932V5.97217Z" fill="white"/>
<path d="M40.4791 5.97217H38.2922V8.1409H40.4791V5.97217Z" fill="white"/>
<path d="M42.6666 5.97217H40.4797V8.1409H42.6666V5.97217Z" fill="white"/>
<path d="M44.853 5.97217H42.666V8.1409H44.853V5.97217Z" fill="white"/>
<path d="M47.0403 5.97217H44.8535V8.1409H47.0403V5.97217Z" fill="white"/>
<path d="M49.2264 5.97217H47.0396V8.1409H49.2264V5.97217Z" fill="white"/>
<path d="M51.414 5.97217H49.2271V8.1409H51.414V5.97217Z" fill="white"/>
<path d="M22.9849 8.14087H20.7981V10.3096H22.9849V8.14087Z" fill="white"/>
<path d="M25.1708 8.14099H22.9839V10.3097H25.1708V8.14099Z" fill="black"/>
<path d="M27.3585 8.14099H25.1716V10.3097H27.3585V8.14099Z" fill="black"/>
<path d="M29.5444 8.14087H27.3574V10.3096H29.5444V8.14087Z" fill="black"/>
<path d="M31.732 8.14087H29.5452V10.3096H31.732V8.14087Z" fill="black"/>
<path d="M33.918 8.14087H31.7312V10.3096H33.918V8.14087Z" fill="black"/>
<path d="M36.1055 8.14099H33.9187V10.3097H36.1055V8.14099Z" fill="black"/>
<path d="M38.2932 8.14087H36.1062V10.3096H38.2932V8.14087Z" fill="black"/>
<path d="M40.4791 8.14087H38.2922V10.3096H40.4791V8.14087Z" fill="black"/>
<path d="M42.6666 8.14087H40.4797V10.3096H42.6666V8.14087Z" fill="black"/>
<path d="M44.853 8.14099H42.666V10.3097H44.853V8.14099Z" fill="black"/>
<path d="M47.0403 8.14099H44.8535V10.3097H47.0403V8.14099Z" fill="black"/>
<path d="M49.2264 8.14087H47.0396V10.3096H49.2264V8.14087Z" fill="black"/>
<path d="M51.414 8.14087H49.2271V10.3096H51.414V8.14087Z" fill="black"/>
<path d="M53.5999 8.14087H51.4131V10.3096H53.5999V8.14087Z" fill="white"/>
<path d="M22.9849 10.3096H20.7981V12.4783H22.9849V10.3096Z" fill="white"/>
<path d="M25.1708 10.3096H22.9839V12.4783H25.1708V10.3096Z" fill="black"/>
<path d="M27.3585 10.3096H25.1716V12.4783H27.3585V10.3096Z" fill="#E68E00"/>
<path d="M29.5444 10.3096H27.3574V12.4783H29.5444V10.3096Z" fill="#FFCC66"/>
<path d="M31.732 10.3096H29.5452V12.4783H31.732V10.3096Z" fill="#FFCC66"/>
<path d="M33.918 10.3096H31.7312V12.4783H33.918V10.3096Z" fill="#FFCC66"/>
<path d="M36.1055 10.3096H33.9187V12.4783H36.1055V10.3096Z" fill="#FFCC66"/>
<path d="M38.2932 10.3096H36.1062V12.4783H38.2932V10.3096Z" fill="#FFCC66"/>
<path d="M40.4791 10.3096H38.2922V12.4783H40.4791V10.3096Z" fill="#FFCC66"/>
<path d="M42.6666 10.3096H40.4797V12.4783H42.6666V10.3096Z" fill="#FFCC66"/>
<path d="M44.853 10.3096H42.666V12.4783H44.853V10.3096Z" fill="#FFCC66"/>
<path d="M47.0403 10.3096H44.8535V12.4783H47.0403V10.3096Z" fill="#FFCC66"/>
<path d="M49.2264 10.3096H47.0396V12.4783H49.2264V10.3096Z" fill="#FFCC66"/>
<path d="M51.414 10.3096H49.2271V12.4783H51.414V10.3096Z" fill="black"/>
<path d="M53.5999 10.3096H51.4131V12.4783H53.5999V10.3096Z" fill="white"/>
<path d="M22.9849 12.4783H20.7981V14.6469H22.9849V12.4783Z" fill="white"/>
<path d="M25.1708 12.4783H22.9839V14.6469H25.1708V12.4783Z" fill="black"/>
<path d="M27.3585 12.4783H25.1716V14.6469H27.3585V12.4783Z" fill="#E68E00"/>
<path d="M29.5444 12.4783H27.3574V14.6469H29.5444V12.4783Z" fill="#FFAF19"/>
<path d="M31.732 12.4783H29.5452V14.6469H31.732V12.4783Z" fill="#FFAF19"/>
<path d="M33.918 12.4783H31.7312V14.6469H33.918V12.4783Z" fill="#FFAF19"/>
<path d="M36.1055 12.4783H33.9187V14.6469H36.1055V12.4783Z" fill="#FFAF19"/>
<path d="M38.2932 12.4783H36.1062V14.6469H38.2932V12.4783Z" fill="#FFAF19"/>
<path d="M40.4791 12.4783H38.2922V14.6469H40.4791V12.4783Z" fill="#FFAF19"/>
<path d="M42.6666 12.4783H40.4797V14.6469H42.6666V12.4783Z" fill="#FFAF19"/>
<path d="M44.853 12.4783H42.666V14.6469H44.853V12.4783Z" fill="#FFAF19"/>
<path d="M47.0403 12.4783H44.8535V14.6469H47.0403V12.4783Z" fill="#FFCC66"/>
<path d="M49.2264 12.4783H47.0396V14.6469H49.2264V12.4783Z" fill="black"/>
<path d="M51.414 12.4783H49.2271V14.6469H51.414V12.4783Z" fill="white"/>
<path d="M20.7973 14.647H18.6104V16.8157H20.7973V14.647Z" fill="white"/>
<path d="M22.9849 14.647H20.7981V16.8157H22.9849V14.647Z" fill="black"/>
<path d="M25.1708 14.647H22.9839V16.8157H25.1708V14.647Z" fill="#E68E00"/>
<path d="M27.3585 14.647H25.1716V16.8157H27.3585V14.647Z" fill="#FFAF19"/>
<path d="M29.5444 14.647H27.3574V16.8157H29.5444V14.647Z" fill="#FFAF19"/>
<path d="M31.732 14.647H29.5452V16.8157H31.732V14.647Z" fill="#FFAF19"/>
<path d="M33.918 14.647H31.7312V16.8157H33.918V14.647Z" fill="#FFAF19"/>
<path d="M36.1055 14.647H33.9187V16.8157H36.1055V14.647Z" fill="#FFAF19"/>
<path d="M38.2932 14.647H36.1062V16.8157H38.2932V14.647Z" fill="white"/>
<path d="M40.4791 14.647H38.2922V16.8157H40.4791V14.647Z" fill="#FFAF19"/>
<path d="M42.6666 14.647H40.4797V16.8157H42.6666V14.647Z" fill="#FFAF19"/>
<path d="M44.853 14.647H42.666V16.8157H44.853V14.647Z" fill="#FFCC66"/>
<path d="M47.0403 14.647H44.8535V16.8157H47.0403V14.647Z" fill="black"/>
<path d="M49.2264 14.647H47.0396V16.8157H49.2264V14.647Z" fill="white"/>
<path d="M20.7973 16.8156H18.6104V18.9843H20.7973V16.8156Z" fill="white"/>
<path d="M22.9849 16.8156H20.7981V18.9843H22.9849V16.8156Z" fill="black"/>
<path d="M25.1708 16.8156H22.9839V18.9843H25.1708V16.8156Z" fill="#E68E00"/>
<path d="M27.3585 16.8156H25.1716V18.9843H27.3585V16.8156Z" fill="#FFAF19"/>
<path d="M29.5444 16.8156H27.3574V18.9843H29.5444V16.8156Z" fill="#FFAF19"/>
<path d="M31.732 16.8156H29.5452V18.9843H31.732V16.8156Z" fill="#FFAF19"/>
<path d="M33.918 16.8156H31.7312V18.9843H33.918V16.8156Z" fill="#FFAF19"/>
<path d="M36.1055 16.8156H33.9187V18.9843H36.1055V16.8156Z" fill="white"/>
<path d="M38.2932 16.8156H36.1062V18.9843H38.2932V16.8156Z" fill="#FFAF19"/>
<path d="M40.4791 16.8156H38.2922V18.9843H40.4791V16.8156Z" fill="#FFAF19"/>
<path d="M42.6666 16.8156H40.4797V18.9843H42.6666V16.8156Z" fill="#FFCC66"/>
<path d="M44.853 16.8156H42.666V18.9843H44.853V16.8156Z" fill="black"/>
<path d="M47.0403 16.8156H44.8535V18.9843H47.0403V16.8156Z" fill="white"/>
<path d="M20.7973 18.9843H18.6104V21.153H20.7973V18.9843Z" fill="white"/>
<path d="M22.9849 18.9843H20.7981V21.153H22.9849V18.9843Z" fill="black"/>
<path d="M25.1708 18.9843H22.9839V21.153H25.1708V18.9843Z" fill="#E68E00"/>
<path d="M27.3585 18.9843H25.1716V21.153H27.3585V18.9843Z" fill="#FFAF19"/>
<path d="M29.5444 18.9843H27.3574V21.153H29.5444V18.9843Z" fill="#FFAF19"/>
<path d="M31.732 18.9843H29.5452V21.153H31.732V18.9843Z" fill="#FFAF19"/>
<path d="M33.918 18.9843H31.7312V21.153H33.918V18.9843Z" fill="#FFAF19"/>
<path d="M36.1055 18.9843H33.9187V21.153H36.1055V18.9843Z" fill="#FFAF19"/>
<path d="M38.2932 18.9843H36.1062V21.153H38.2932V18.9843Z" fill="#FFAF19"/>
<path d="M40.4791 18.9843H38.2922V21.153H40.4791V18.9843Z" fill="#FFCC66"/>
<path d="M42.6666 18.9843H40.4797V21.153H42.6666V18.9843Z" fill="black"/>
<path d="M44.853 18.9843H42.666V21.153H44.853V18.9843Z" fill="white"/>
<path d="M18.6111 21.1544H16.4243V23.3231H18.6111V21.1544Z" fill="white"/>
<path d="M20.7973 21.1544H18.6104V23.3231H20.7973V21.1544Z" fill="black"/>
<path d="M22.9849 21.1544H20.7981V23.3231H22.9849V21.1544Z" fill="#E68E00"/>
<path d="M25.1708 21.1544H22.9839V23.3231H25.1708V21.1544Z" fill="#FFAF19"/>
<path d="M27.3585 21.1544H25.1716V23.3231H27.3585V21.1544Z" fill="#FFAF19"/>
<path d="M29.5444 21.1544H27.3574V23.3231H29.5444V21.1544Z" fill="#FFAF19"/>
<path d="M31.732 21.1544H29.5452V23.3231H31.732V21.1544Z" fill="#FFAF19"/>
<path d="M33.918 21.1544H31.7312V23.3231H33.918V21.1544Z" fill="#FFAF19"/>
<path d="M36.1055 21.1544H33.9187V23.3231H36.1055V21.1544Z" fill="#FFAF19"/>
<path d="M38.2932 21.1544H36.1062V23.3231H38.2932V21.1544Z" fill="#FFCC66"/>
<path d="M40.4791 21.1544H38.2922V23.3231H40.4791V21.1544Z" fill="black"/>
<path d="M42.6666 21.1544H40.4797V23.3231H42.6666V21.1544Z" fill="white"/>
<path d="M18.6111 23.3217H16.4243V25.4903H18.6111V23.3217Z" fill="white"/>
<path d="M20.7973 23.3217H18.6104V25.4903H20.7973V23.3217Z" fill="black"/>
<path d="M22.9849 23.3217H20.7981V25.4903H22.9849V23.3217Z" fill="#E68E00"/>
<path d="M25.1708 23.3217H22.9839V25.4903H25.1708V23.3217Z" fill="#FFAF19"/>
<path d="M27.3585 23.3217H25.1716V25.4903H27.3585V23.3217Z" fill="#FFAF19"/>
<path d="M29.5444 23.3217H27.3574V25.4903H29.5444V23.3217Z" fill="#FFAF19"/>
<path d="M31.732 23.3217H29.5452V25.4903H31.732V23.3217Z" fill="#FFAF19"/>
<path d="M33.918 23.3217H31.7312V25.4903H33.918V23.3217Z" fill="#FFAF19"/>
<path d="M36.1055 23.3217H33.9187V25.4903H36.1055V23.3217Z" fill="#FFCC66"/>
<path d="M38.2932 23.3217H36.1062V25.4903H38.2932V23.3217Z" fill="black"/>
<path d="M40.4791 23.3217H38.2922V25.4903H40.4791V23.3217Z" fill="white"/>
<path d="M42.6666 23.3217H40.4797V25.4903H42.6666V23.3217Z" fill="white"/>
<path d="M44.853 23.3217H42.666V25.4903H44.853V23.3217Z" fill="white"/>
<path d="M47.0403 23.3217H44.8535V25.4903H47.0403V23.3217Z" fill="white"/>
<path d="M18.6111 25.4917H16.4243V27.6605H18.6111V25.4917Z" fill="white"/>
<path d="M20.7973 25.4917H18.6104V27.6605H20.7973V25.4917Z" fill="black"/>
<path d="M22.9849 25.4917H20.7981V27.6605H22.9849V25.4917Z" fill="#E68E00"/>
<path d="M25.1708 25.4917H22.9839V27.6605H25.1708V25.4917Z" fill="#FFAF19"/>
<path d="M27.3585 25.4917H25.1716V27.6605H27.3585V25.4917Z" fill="#FFAF19"/>
<path d="M29.5444 25.4917H27.3574V27.6605H29.5444V25.4917Z" fill="#FFAF19"/>
<path d="M31.732 25.4917H29.5452V27.6605H31.732V25.4917Z" fill="#FFAF19"/>
<path d="M33.918 25.4917H31.7312V27.6605H33.918V25.4917Z" fill="#FFCC66"/>
<path d="M36.1055 25.4917H33.9187V27.6605H36.1055V25.4917Z" fill="black"/>
<path d="M38.2932 25.4917H36.1062V27.6605H38.2932V25.4917Z" fill="black"/>
<path d="M40.4791 25.4917H38.2922V27.6605H40.4791V25.4917Z" fill="black"/>
<path d="M42.6666 25.4917H40.4797V27.6605H42.6666V25.4917Z" fill="black"/>
<path d="M44.853 25.4917H42.666V27.6605H44.853V25.4917Z" fill="black"/>
<path d="M47.0403 25.4917H44.8535V27.6605H47.0403V25.4917Z" fill="black"/>
<path d="M49.2264 25.4917H47.0396V27.6605H49.2264V25.4917Z" fill="white"/>
<path d="M16.4238 27.6589H14.2368V29.8277H16.4238V27.6589Z" fill="white"/>
<path d="M18.6111 27.6589H16.4243V29.8277H18.6111V27.6589Z" fill="black"/>
<path d="M20.7973 27.6589H18.6104V29.8277H20.7973V27.6589Z" fill="#E68E00"/>
<path d="M22.9849 27.6589H20.7981V29.8277H22.9849V27.6589Z" fill="#FFAF19"/>
<path d="M25.1708 27.6589H22.9839V29.8277H25.1708V27.6589Z" fill="#FFAF19"/>
<path d="M27.3585 27.6589H25.1716V29.8277H27.3585V27.6589Z" fill="#FFAF19"/>
<path d="M29.5444 27.6589H27.3574V29.8277H29.5444V27.6589Z" fill="#FFAF19"/>
<path d="M31.732 27.6589H29.5452V29.8277H31.732V27.6589Z" fill="#FFAF19"/>
<path d="M33.918 27.6589H31.7312V29.8277H33.918V27.6589Z" fill="#FFAF19"/>
<path d="M36.1055 27.6589H33.9187V29.8277H36.1055V27.6589Z" fill="#FFAF19"/>
<path d="M38.2932 27.6589H36.1062V29.8277H38.2932V27.6589Z" fill="#FFAF19"/>
<path d="M40.4791 27.6589H38.2922V29.8277H40.4791V27.6589Z" fill="#FFAF19"/>
<path d="M42.6666 27.6589H40.4797V29.8277H42.6666V27.6589Z" fill="#FFAF19"/>
<path d="M44.853 27.6589H42.666V29.8277H44.853V27.6589Z" fill="#FFAF19"/>
<path d="M47.0403 27.6589H44.8535V29.8277H47.0403V27.6589Z" fill="#FFCC66"/>
<path d="M49.2264 27.6589H47.0396V29.8277H49.2264V27.6589Z" fill="black"/>
<path d="M51.414 27.6589H49.2271V29.8277H51.414V27.6589Z" fill="white"/>
<path d="M16.4238 29.8291H14.2368V31.9977H16.4238V29.8291Z" fill="white"/>
<path d="M18.6111 29.8291H16.4243V31.9977H18.6111V29.8291Z" fill="black"/>
<path d="M20.7973 29.8291H18.6104V31.9977H20.7973V29.8291Z" fill="#E68E00"/>
<path d="M22.9849 29.8291H20.7981V31.9977H22.9849V29.8291Z" fill="#E68E00"/>
<path d="M25.1708 29.8291H22.9839V31.9977H25.1708V29.8291Z" fill="#E68E00"/>
<path d="M27.3585 29.8291H25.1716V31.9977H27.3585V29.8291Z" fill="#E68E00"/>
<path d="M29.5444 29.8291H27.3574V31.9977H29.5444V29.8291Z" fill="#E68E00"/>
<path d="M31.732 29.8291H29.5452V31.9977H31.732V29.8291Z" fill="#FFAF19"/>
<path d="M33.918 29.8291H31.7312V31.9977H33.918V29.8291Z" fill="#FFAF19"/>
<path d="M36.1055 29.8291H33.9187V31.9977H36.1055V29.8291Z" fill="#FFAF19"/>
<path d="M38.2932 29.8291H36.1062V31.9977H38.2932V29.8291Z" fill="#FFAF19"/>
<path d="M40.4791 29.8291H38.2922V31.9977H40.4791V29.8291Z" fill="white"/>
<path d="M42.6666 29.8291H40.4797V31.9977H42.6666V29.8291Z" fill="#FFAF19"/>
<path d="M44.853 29.8291H42.666V31.9977H44.853V29.8291Z" fill="#FFAF19"/>
<path d="M47.0403 29.8291H44.8535V31.9977H47.0403V29.8291Z" fill="#FFCC66"/>
<path d="M49.2264 29.8291H47.0396V31.9977H49.2264V29.8291Z" fill="black"/>
<path d="M51.414 29.8291H49.2271V31.9977H51.414V29.8291Z" fill="white"/>
<path d="M16.4238 31.9963H14.2368V34.165H16.4238V31.9963Z" fill="white"/>
<path d="M18.6111 31.9963H16.4243V34.165H18.6111V31.9963Z" fill="black"/>
<path d="M20.7973 31.9963H18.6104V34.165H20.7973V31.9963Z" fill="black"/>
<path d="M22.9849 31.9963H20.7981V34.165H22.9849V31.9963Z" fill="black"/>
<path d="M25.1708 31.9963H22.9839V34.165H25.1708V31.9963Z" fill="black"/>
<path d="M27.3585 31.9963H25.1716V34.165H27.3585V31.9963Z" fill="black"/>
<path d="M29.5444 31.9963H27.3574V34.165H29.5444V31.9963Z" fill="#E68E00"/>
<path d="M31.732 31.9963H29.5452V34.165H31.732V31.9963Z" fill="#FFAF19"/>
<path d="M33.918 31.9963H31.7312V34.165H33.918V31.9963Z" fill="#FFAF19"/>
<path d="M36.1055 31.9963H33.9187V34.165H36.1055V31.9963Z" fill="#FFAF19"/>
<path d="M38.2932 31.9963H36.1062V34.165H38.2932V31.9963Z" fill="white"/>
<path d="M40.4791 31.9963H38.2922V34.165H40.4791V31.9963Z" fill="#FFAF19"/>
<path d="M42.6666 31.9963H40.4797V34.165H42.6666V31.9963Z" fill="#FFAF19"/>
<path d="M44.853 31.9963H42.666V34.165H44.853V31.9963Z" fill="#FFCC66"/>
<path d="M47.0403 31.9963H44.8535V34.165H47.0403V31.9963Z" fill="black"/>
<path d="M49.2264 31.9963H47.0396V34.165H49.2264V31.9963Z" fill="white"/>
<path d="M51.414 31.9963H49.2271V34.165H51.414V31.9963Z" fill="white"/>
<path d="M18.6111 34.1664H16.4243V36.3351H18.6111V34.1664Z" fill="white"/>
<path d="M20.7973 34.1664H18.6104V36.3351H20.7973V34.1664Z" fill="white"/>
<path d="M22.9849 34.1664H20.7981V36.3351H22.9849V34.1664Z" fill="white"/>
<path d="M25.1708 34.1664H22.9839V36.3351H25.1708V34.1664Z" fill="white"/>
<path d="M27.3585 34.1664H25.1716V36.3351H27.3585V34.1664Z" fill="black"/>
<path d="M29.5444 34.1664H27.3574V36.3351H29.5444V34.1664Z" fill="#E68E00"/>
<path d="M31.732 34.1664H29.5452V36.3351H31.732V34.1664Z" fill="#FFAF19"/>
<path d="M33.918 34.1664H31.7312V36.3351H33.918V34.1664Z" fill="#FFAF19"/>
<path d="M36.1055 34.1664H33.9187V36.3351H36.1055V34.1664Z" fill="#FFAF19"/>
<path d="M38.2932 34.1664H36.1062V36.3351H38.2932V34.1664Z" fill="#FFAF19"/>
<path d="M40.4791 34.1664H38.2922V36.3351H40.4791V34.1664Z" fill="#FFAF19"/>
<path d="M42.6666 34.1664H40.4797V36.3351H42.6666V34.1664Z" fill="#FFCC66"/>
<path d="M44.853 34.1664H42.666V36.3351H44.853V34.1664Z" fill="black"/>
<path d="M47.0403 34.1664H44.8535V36.3351H47.0403V34.1664Z" fill="white"/>
<path d="M49.2264 34.1664H47.0396V36.3351H49.2264V34.1664Z" fill="white"/>
<path d="M25.1708 36.3336H22.9839V38.5024H25.1708V36.3336Z" fill="white"/>
<path d="M27.3585 36.3336H25.1716V38.5024H27.3585V36.3336Z" fill="black"/>
<path d="M29.5444 36.3336H27.3574V38.5024H29.5444V36.3336Z" fill="#E68E00"/>
<path d="M31.732 36.3336H29.5452V38.5024H31.732V36.3336Z" fill="#FFAF19"/>
<path d="M33.918 36.3336H31.7312V38.5024H33.918V36.3336Z" fill="#FFAF19"/>
<path d="M36.1055 36.3336H33.9187V38.5024H36.1055V36.3336Z" fill="#FFAF19"/>
<path d="M38.2932 36.3336H36.1062V38.5024H38.2932V36.3336Z" fill="#FFAF19"/>
<path d="M40.4791 36.3336H38.2922V38.5024H40.4791V36.3336Z" fill="#FFCC66"/>
<path d="M42.6666 36.3336H40.4797V38.5024H42.6666V36.3336Z" fill="black"/>
<path d="M44.853 36.3336H42.666V38.5024H44.853V36.3336Z" fill="white"/>
<path d="M47.0403 36.3336H44.8535V38.5024H47.0403V36.3336Z" fill="white"/>
<path d="M22.9849 38.5035H20.7981V40.6723H22.9849V38.5035Z" fill="white"/>
<path d="M25.1708 38.5035H22.9839V40.6723H25.1708V38.5035Z" fill="black"/>
<path d="M27.3585 38.5035H25.1716V40.6723H27.3585V38.5035Z" fill="#E68E00"/>
<path d="M29.5444 38.5035H27.3574V40.6723H29.5444V38.5035Z" fill="#E68E00"/>
<path d="M31.732 38.5035H29.5452V40.6723H31.732V38.5035Z" fill="#FFAF19"/>
<path d="M33.918 38.5035H31.7312V40.6723H33.918V38.5035Z" fill="#FFAF19"/>
<path d="M36.1055 38.5035H33.9187V40.6723H36.1055V38.5035Z" fill="#FFAF19"/>
<path d="M38.2932 38.5035H36.1062V40.6723H38.2932V38.5035Z" fill="#FFCC66"/>
<path d="M40.4791 38.5035H38.2922V40.6723H40.4791V38.5035Z" fill="black"/>
<path d="M42.6666 38.5035H40.4797V40.6723H42.6666V38.5035Z" fill="white"/>
<path d="M44.853 38.5035H42.666V40.6723H44.853V38.5035Z" fill="white"/>
<path d="M22.9849 40.6708H20.7981V42.8395H22.9849V40.6708Z" fill="white"/>
<path d="M25.1708 40.6708H22.9839V42.8395H25.1708V40.6708Z" fill="black"/>
<path d="M27.3585 40.6708H25.1716V42.8395H27.3585V40.6708Z" fill="#E68E00"/>
<path d="M29.5444 40.6708H27.3574V42.8395H29.5444V40.6708Z" fill="#FFAF19"/>
<path d="M31.732 40.6708H29.5452V42.8395H31.732V40.6708Z" fill="#FFAF19"/>
<path d="M33.918 40.6708H31.7312V42.8395H33.918V40.6708Z" fill="#FFAF19"/>
<path d="M36.1055 40.6708H33.9187V42.8395H36.1055V40.6708Z" fill="#FFCC66"/>
<path d="M38.2932 40.6708H36.1062V42.8395H38.2932V40.6708Z" fill="black"/>
<path d="M40.4791 40.6708H38.2922V42.8395H40.4791V40.6708Z" fill="white"/>
<path d="M42.6666 40.6708H40.4797V42.8395H42.6666V40.6708Z" fill="white"/>
<path d="M22.9849 42.8409H20.7981V45.0096H22.9849V42.8409Z" fill="white"/>
<path d="M25.1708 42.8409H22.9839V45.0096H25.1708V42.8409Z" fill="black"/>
<path d="M27.3585 42.8409H25.1716V45.0096H27.3585V42.8409Z" fill="#E68E00"/>
<path d="M29.5444 42.8409H27.3574V45.0096H29.5444V42.8409Z" fill="#FFAF19"/>
<path d="M31.732 42.8409H29.5452V45.0096H31.732V42.8409Z" fill="#FFAF19"/>
<path d="M33.918 42.8409H31.7312V45.0096H33.918V42.8409Z" fill="#FFCC66"/>
<path d="M36.1055 42.8409H33.9187V45.0096H36.1055V42.8409Z" fill="black"/>
<path d="M38.2932 42.8409H36.1062V45.0096H38.2932V42.8409Z" fill="white"/>
<path d="M40.4791 42.8409H38.2922V45.0096H40.4791V42.8409Z" fill="white"/>
<path d="M20.7973 45.0082H18.6104V47.1768H20.7973V45.0082Z" fill="white"/>
<path d="M22.9849 45.0082H20.7981V47.1768H22.9849V45.0082Z" fill="black"/>
<path d="M25.1708 45.0082H22.9839V47.1768H25.1708V45.0082Z" fill="#E68E00"/>
<path d="M27.3585 45.0082H25.1716V47.1768H27.3585V45.0082Z" fill="#E68E00"/>
<path d="M29.5444 45.0082H27.3574V47.1768H29.5444V45.0082Z" fill="#FFAF19"/>
<path d="M31.732 45.0082H29.5452V47.1768H31.732V45.0082Z" fill="#FFCC66"/>
<path d="M33.918 45.0082H31.7312V47.1768H33.918V45.0082Z" fill="black"/>
<path d="M36.1055 45.0082H33.9187V47.1768H36.1055V45.0082Z" fill="white"/>
<path d="M38.2932 45.0082H36.1062V47.1768H38.2932V45.0082Z" fill="white"/>
<path d="M20.7973 47.1783H18.6104V49.3471H20.7973V47.1783Z" fill="white"/>
<path d="M22.9849 47.1783H20.7981V49.3471H22.9849V47.1783Z" fill="black"/>
<path d="M25.1708 47.1783H22.9839V49.3471H25.1708V47.1783Z" fill="#E68E00"/>
<path d="M27.3585 47.1783H25.1716V49.3471H27.3585V47.1783Z" fill="#FFAF19"/>
<path d="M29.5444 47.1783H27.3574V49.3471H29.5444V47.1783Z" fill="#FFCC66"/>
<path d="M31.732 47.1783H29.5452V49.3471H31.732V47.1783Z" fill="black"/>
<path d="M33.918 47.1783H31.7312V49.3471H33.918V47.1783Z" fill="white"/>
<path d="M36.1055 47.1783H33.9187V49.3471H36.1055V47.1783Z" fill="white"/>
<path d="M20.7973 49.3469H18.6104V51.5157H20.7973V49.3469Z" fill="white"/>
<path d="M22.9849 49.3469H20.7981V51.5157H22.9849V49.3469Z" fill="black"/>
<path d="M25.1708 49.3469H22.9839V51.5157H25.1708V49.3469Z" fill="#E68E00"/>
<path d="M27.3585 49.3469H25.1716V51.5157H27.3585V49.3469Z" fill="#FFCC66"/>
<path d="M29.5444 49.3469H27.3574V51.5157H29.5444V49.3469Z" fill="black"/>
<path d="M31.732 49.3469H29.5452V51.5157H31.732V49.3469Z" fill="white"/>
<path d="M33.918 49.3469H31.7312V51.5157H33.918V49.3469Z" fill="white"/>
<path d="M18.6111 51.5157H16.4243V53.6844H18.6111V51.5157Z" fill="white"/>
<path d="M20.7973 51.5157H18.6104V53.6844H20.7973V51.5157Z" fill="black"/>
<path d="M22.9849 51.5157H20.7981V53.6844H22.9849V51.5157Z" fill="#E68E00"/>
<path d="M25.1708 51.5157H22.9839V53.6844H25.1708V51.5157Z" fill="#E68E00"/>
<path d="M27.3585 51.5157H25.1716V53.6844H27.3585V51.5157Z" fill="black"/>
<path d="M29.5444 51.5157H27.3574V53.6844H29.5444V51.5157Z" fill="white"/>
<path d="M31.732 51.5157H29.5452V53.6844H31.732V51.5157Z" fill="white"/>
<path d="M18.6111 53.6843H16.4243V55.8531H18.6111V53.6843Z" fill="white"/>
<path d="M20.7973 53.6843H18.6104V55.8531H20.7973V53.6843Z" fill="black"/>
<path d="M22.9849 53.6843H20.7981V55.8531H22.9849V53.6843Z" fill="#E68E00"/>
<path d="M25.1708 53.6843H22.9839V55.8531H25.1708V53.6843Z" fill="black"/>
<path d="M27.3585 53.6843H25.1716V55.8531H27.3585V53.6843Z" fill="white"/>
<path d="M29.5444 53.6843H27.3574V55.8531H29.5444V53.6843Z" fill="white"/>
<path d="M18.6111 55.853H16.4243V58.0218H18.6111V55.853Z" fill="white"/>
<path d="M20.7973 55.853H18.6104V58.0218H20.7973V55.853Z" fill="black"/>
<path d="M22.9849 55.853H20.7981V58.0218H22.9849V55.853Z" fill="black"/>
<path d="M25.1708 55.853H22.9839V58.0218H25.1708V55.853Z" fill="white"/>
<path d="M27.3585 55.853H25.1716V58.0218H27.3585V55.853Z" fill="white"/>
<path d="M18.6111 58.0216H16.4243V60.1904H18.6111V58.0216Z" fill="white"/>
<path d="M20.7973 58.0216H18.6104V60.1904H20.7973V58.0216Z" fill="white"/>
<path d="M22.9849 58.0216H20.7981V60.1904H22.9849V58.0216Z" fill="white"/>
<path d="M25.1708 58.0216H22.9839V60.1904H25.1708V58.0216Z" fill="white"/>
</svg>
